<svg version="1.1" id="Layer_1" xmlns="http://www.w3.org/2000/svg" xmlns:xlink="http://www.w3.org/1999/xlink" x="0px" y="0px"
	 width="100%" viewBox="0 0 1920 1080" enable-background="new 0 0 1920 1080" xml:space="preserve">
<path fill="#FFEEC4" opacity="1.000000" stroke="none" 
	d="
M1262.000000,1081.000000 
	C841.333435,1081.000000 421.166809,1081.000000 1.000169,1081.000000 
	C1.000113,721.000122 1.000113,361.000275 1.000056,1.000314 
	C640.999756,1.000209 1280.999512,1.000209 1920.999512,1.000105 
	C1920.999634,360.999664 1920.999634,720.999329 1920.999756,1080.999512 
	C1701.500000,1081.000000 1482.000000,1081.000000 1262.000000,1081.000000 
M289.914948,457.906036 
	C289.914948,538.503540 289.914948,619.101074 289.914948,699.783325 
	C320.303223,699.783325 350.166351,699.783325 380.338684,699.783325 
	C380.338684,667.777771 380.338684,636.153137 380.338684,604.581543 
	C383.875153,603.128723 385.178192,604.603333 386.142822,607.651062 
	C391.731110,625.306641 397.472412,642.913757 403.184113,660.530151 
	C406.740204,671.497986 410.809845,682.329224 413.715881,693.465271 
	C415.201324,699.157349 417.816101,700.322754 423.169098,700.280518 
	C453.326447,700.042969 483.486694,700.165894 513.645935,700.165894 
	C515.398560,700.165894 517.151123,700.165894 519.657410,700.165894 
	C503.246948,663.732849 487.193390,628.092163 471.132111,592.434326 
	C472.131378,591.765381 472.921417,591.154785 473.783020,590.671936 
	C490.107635,581.523621 501.437408,567.977234 508.974487,551.008423 
	C515.692322,535.884033 518.727722,519.849487 519.700806,503.544495 
	C521.209229,478.272125 519.811707,453.177246 509.895294,429.387024 
	C500.157227,406.024658 484.999115,387.292206 461.577789,376.515472 
	C444.332214,368.580475 425.704620,366.343506 406.983704,366.088379 
	C369.833435,365.582153 332.673889,365.783508 295.521057,365.406494 
	C290.578735,365.356354 289.073883,367.318878 288.145416,371.630005 
	C284.298737,389.490662 280.138336,407.283417 276.178406,425.120056 
	C273.924072,435.274261 271.834412,445.465027 269.573456,456.096222 
	C276.368256,456.096222 282.688232,456.096222 289.181763,456.450958 
	C289.329742,456.676331 289.523071,456.851746 289.914948,457.906036 
M699.894592,704.603088 
	C703.786011,703.981750 707.766357,703.693604 711.553528,702.681946 
	C728.875244,698.054932 745.210632,691.234558 759.738770,680.479675 
	C783.084290,663.197571 800.430542,641.164001 810.758484,614.064575 
	C824.464172,578.102478 827.507080,540.807556 823.060059,502.721344 
	C820.288818,478.986908 814.444519,456.268829 803.021118,435.087341 
	C788.884216,408.874207 769.248108,388.241364 742.648010,374.559387 
	C722.206787,364.045319 700.442383,359.854523 677.494019,360.936676 
	C659.656128,361.777832 642.811462,366.550049 627.226257,374.680786 
	C611.841736,382.706848 598.261353,393.316620 586.732727,406.758240 
	C577.192383,417.881744 569.182312,429.838440 562.859009,442.828125 
	C553.227112,462.614380 548.522095,483.961700 546.174255,505.714874 
	C544.981628,516.765076 544.802490,527.999939 545.156311,539.119751 
	C545.484680,549.439880 547.170837,559.714172 548.188232,570.015564 
	C549.963562,587.989380 555.235840,605.150940 562.483398,621.435242 
	C572.129639,643.109314 586.726868,661.253540 605.158936,676.566467 
	C620.381287,689.212830 637.204346,698.059021 656.303040,702.459595 
	C664.633911,704.379028 673.267334,705.266479 681.816345,705.859070 
	C687.509155,706.253540 693.295593,705.297913 699.894592,704.603088 
M857.726135,633.499939 
	C857.726135,655.589478 857.726135,677.679016 857.726135,699.343750 
	C858.495056,699.851074 858.630615,700.019165 858.763367,700.016968 
	C896.236267,699.403809 933.759399,702.114014 971.185181,697.977173 
	C984.217712,696.536682 996.760437,693.292725 1008.340210,687.513367 
	C1039.125977,672.148621 1059.161255,646.858276 1071.890625,615.495300 
	C1080.433105,594.448242 1084.652100,572.460022 1086.237915,549.714355 
	C1087.645874,529.518616 1086.921387,509.527313 1083.659058,489.719666 
	C1078.843262,460.480316 1068.243896,433.472595 1048.591309,410.756683 
	C1035.009033,395.057190 1019.412170,382.082703 999.484619,374.696747 
	C982.418640,368.371368 964.759888,366.482300 946.890198,366.082855 
	C921.745605,365.520721 896.585938,365.608734 871.432434,365.492615 
	C866.966492,365.471985 861.491577,364.317139 858.340637,366.441742 
	C855.669128,368.243164 855.506653,373.984497 854.540527,378.055176 
	C851.636475,390.291321 848.800110,402.544891 846.091858,414.825745 
	C843.115845,428.320953 840.311646,441.854034 837.298584,455.999634 
	C844.025208,455.999634 850.722778,455.999634 857.726074,455.999634 
	C857.726074,515.264954 857.726074,573.882385 857.726135,633.499939 
M43.347015,690.446533 
	C43.347015,693.564087 43.347015,696.681580 43.347015,699.789429 
	C73.868080,699.789429 103.758743,699.789429 134.143188,699.789429 
	C134.143188,675.018188 134.143188,650.621155 134.143188,626.824280 
	C145.316574,625.772949 156.112381,625.635010 166.512756,623.536865 
	C177.375702,621.345398 188.422073,618.461670 198.385513,613.757019 
	C217.269104,604.840271 230.465866,589.592651 239.928253,571.111694 
	C248.637436,554.101868 254.679138,536.197632 255.912384,517.065308 
	C256.805573,503.208313 257.620514,489.200867 256.586121,475.401764 
	C255.280701,457.987000 250.675888,441.174347 243.157532,425.151031 
	C235.106445,407.992310 224.180374,393.372833 208.891220,382.130371 
	C193.215576,370.603790 174.943863,366.612579 156.157806,366.189606 
	C120.009933,365.375702 83.836708,365.709869 47.674679,365.466492 
	C44.292427,365.443756 42.842701,366.437988 42.083588,369.969940 
	C38.653221,385.930573 34.760777,401.791229 31.198496,417.724487 
	C28.399906,430.241943 25.840759,442.812927 23.047089,455.963379 
	C29.893658,455.963379 36.480450,455.963379 43.347187,455.963379 
	C43.347187,534.177307 43.347187,611.820068 43.347015,690.446533 
M1563.651245,609.990173 
	C1534.431030,607.382874 1509.034668,595.348145 1485.839600,577.870056 
	C1485.139404,579.522522 1484.471069,580.655701 1484.168213,581.879395 
	C1476.550659,612.650085 1468.926025,643.419373 1461.529419,674.243286 
	C1461.186157,675.673767 1462.487427,678.246704 1463.807007,679.186584 
	C1467.596436,681.885498 1471.702881,684.182434 1475.836914,686.347046 
	C1500.268066,699.139465 1525.708374,709.024292 1553.532715,710.755127 
	C1566.324463,711.550842 1579.245728,711.598022 1592.033081,710.791504 
	C1608.171997,709.773743 1623.052490,703.967102 1636.976929,695.853943 
	C1660.038330,682.417175 1675.750000,662.756531 1684.773071,637.846008 
	C1691.804199,618.434387 1693.482178,598.363831 1691.085938,577.808472 
	C1688.012085,551.440186 1677.226318,529.203918 1656.864502,512.009644 
	C1641.719971,499.221161 1623.468872,491.541534 1606.334473,482.011536 
	C1595.615112,476.049561 1584.978394,469.766693 1575.075928,462.566864 
	C1568.060547,457.466003 1569.624634,449.763367 1577.872803,446.835663 
	C1582.920898,445.043762 1588.589478,444.067078 1593.937012,444.219055 
	C1613.785522,444.782990 1631.652100,451.540924 1647.696045,463.142242 
	C1651.982788,466.241974 1656.088013,469.592560 1660.678345,473.138306 
	C1669.594604,436.657776 1678.381836,400.705383 1687.198853,364.630920 
	C1658.312134,357.597931 1630.143921,350.739929 1601.605835,343.791840 
	C1600.702515,347.550812 1599.844360,350.817780 1599.145264,354.118439 
	C1598.500366,357.162567 1597.354492,358.492065 1593.747925,357.677795 
	C1577.328003,353.970673 1560.749023,352.849091 1543.950195,354.941803 
	C1524.590088,357.353607 1507.524048,365.030792 1492.975464,377.712555 
	C1471.984131,396.010315 1460.866455,419.855438 1458.297607,447.205780 
	C1457.204102,458.847626 1458.445679,470.953674 1460.309814,482.578796 
	C1464.535156,508.929810 1479.255737,528.718140 1500.891846,543.904785 
	C1519.909790,557.253723 1541.445923,565.839417 1561.618042,576.986389 
	C1568.046387,580.538696 1574.203247,584.806091 1579.821899,589.533508 
	C1584.835327,593.751587 1584.266357,600.556580 1579.540894,605.057251 
	C1575.320435,609.076660 1570.150391,610.174805 1563.651245,609.990173 
M1888.948486,439.431122 
	C1895.675903,408.890350 1902.403320,378.349579 1909.274170,347.157623 
	C1906.938232,347.157623 1905.160522,347.157593 1903.382690,347.157593 
	C1876.720459,347.157593 1850.054199,347.396393 1823.398926,346.966949 
	C1817.701660,346.875153 1815.418701,349.140442 1815.295532,353.827362 
	C1815.178101,358.298523 1813.199219,358.905548 1809.419067,358.892212 
	C1778.257935,358.782257 1747.096191,358.830109 1715.934692,358.830139 
	C1714.179688,358.830170 1712.424561,358.830139 1710.729126,358.830139 
	C1702.853394,393.709106 1695.138794,427.874329 1687.295410,462.610046 
	C1703.637695,462.610046 1719.866211,462.610046 1736.755371,462.610046 
	C1736.755371,544.365234 1736.755371,625.552307 1736.755371,706.704895 
	C1771.671265,706.704895 1805.911621,706.704895 1840.803467,706.704895 
	C1840.803467,625.211731 1840.803467,544.015015 1840.803467,462.476013 
	C1855.421875,462.476013 1869.390381,462.476013 1883.455322,462.476013 
	C1885.290283,454.868683 1887.052124,447.564606 1888.948486,439.431122 
M1206.500000,707.009827 
	C1238.117188,707.009827 1269.734375,707.009827 1301.452759,707.009827 
	C1309.003418,672.256958 1316.461670,637.929993 1324.060303,602.956421 
	C1300.553589,602.956421 1277.500977,602.956421 1254.017456,602.956421 
	C1254.017456,521.334045 1254.017456,440.288086 1254.017456,358.822174 
	C1251.783936,358.822174 1249.989136,358.822205 1248.194336,358.822205 
	C1218.541626,358.822205 1188.888794,358.822174 1159.236084,358.822205 
	C1150.883545,358.822205 1150.868896,358.819275 1149.269287,366.612885 
	C1148.846680,368.671661 1148.628296,370.773590 1148.175415,372.824677 
	C1141.867310,401.399750 1135.740234,430.018066 1129.007935,458.493164 
	C1127.872070,463.297668 1129.606934,463.042175 1132.768311,463.020874 
	C1138.520508,462.982117 1144.273315,463.009857 1150.334229,463.009857 
	C1150.334229,544.687134 1150.334229,625.597961 1150.334229,707.009827 
	C1168.945435,707.009827 1187.222778,707.009827 1206.500000,707.009827 
M1437.971313,659.500000 
	C1437.971313,559.412170 1437.971313,459.324310 1437.971313,359.582642 
	C1437.279907,359.154968 1437.146484,359.000305 1437.012939,359.000031 
	C1404.025269,358.932922 1371.037598,358.837189 1338.050659,358.967346 
	C1336.763184,358.972412 1334.727051,360.933075 1334.337891,362.341217 
	C1332.967041,367.301758 1332.245239,372.437195 1331.129517,377.473572 
	C1325.156982,404.437927 1319.348999,431.442200 1312.954468,458.306580 
	C1311.732910,463.438599 1313.858887,463.055603 1317.124634,463.027740 
	C1322.714722,462.980042 1328.305542,463.014587 1334.186646,463.014587 
	C1334.186646,544.683411 1334.186646,625.609253 1334.186646,706.706421 
	C1368.883789,706.706421 1403.259277,706.706421 1437.971313,706.706421 
	C1437.971313,691.100403 1437.971313,675.800232 1437.971313,659.500000 
z"/>
<path fill="#822020" opacity="1.000000" stroke="none" 
	d="
M289.008179,456.096222 
	C282.688232,456.096222 276.368256,456.096222 269.573456,456.096222 
	C271.834412,445.465027 273.924072,435.274261 276.178406,425.120056 
	C280.138336,407.283417 284.298737,389.490662 288.145416,371.630005 
	C289.073883,367.318878 290.578735,365.356354 295.521057,365.406494 
	C332.673889,365.783508 369.833435,365.582153 406.983704,366.088379 
	C425.704620,366.343506 444.332214,368.580475 461.577789,376.515472 
	C484.999115,387.292206 500.157227,406.024658 509.895294,429.387024 
	C519.811707,453.177246 521.209229,478.272125 519.700806,503.544495 
	C518.727722,519.849487 515.692322,535.884033 508.974487,551.008423 
	C501.437408,567.977234 490.107635,581.523621 473.783020,590.671936 
	C472.921417,591.154785 472.131378,591.765381 471.132111,592.434326 
	C487.193390,628.092163 503.246948,663.732849 519.657410,700.165894 
	C517.151123,700.165894 515.398560,700.165894 513.645935,700.165894 
	C483.486694,700.165894 453.326447,700.042969 423.169098,700.280518 
	C417.816101,700.322754 415.201324,699.157349 413.715881,693.465271 
	C410.809845,682.329224 406.740204,671.497986 403.184113,660.530151 
	C397.472412,642.913757 391.731110,625.306641 386.142822,607.651062 
	C385.178192,604.603333 383.875153,603.128723 380.338684,604.581543 
	C380.338684,636.153137 380.338684,667.777771 380.338684,699.783325 
	C350.166351,699.783325 320.303223,699.783325 289.914948,699.783325 
	C289.914948,619.101074 289.914948,538.503540 289.879272,457.185608 
	C289.565125,456.342194 289.286652,456.219208 289.008179,456.096222 
M394.989655,453.137299 
	C390.228973,453.137299 385.468292,453.137299 380.482758,453.137299 
	C380.482758,479.186127 380.482758,504.916504 380.482758,530.614685 
	C391.012146,534.458313 408.633698,528.903015 416.173798,519.598999 
	C423.546204,510.502014 425.313629,499.862946 424.793488,488.662109 
	C424.421326,480.647522 423.056091,472.847443 418.210968,466.031708 
	C412.702576,458.282990 404.669403,455.146271 394.989655,453.137299 
z"/>
<path fill="#822120" opacity="1.000000" stroke="none" 
	d="
M699.467346,704.774780 
	C693.295593,705.297913 687.509155,706.253540 681.816345,705.859070 
	C673.267334,705.266479 664.633911,704.379028 656.303040,702.459595 
	C637.204346,698.059021 620.381287,689.212830 605.158936,676.566467 
	C586.726868,661.253540 572.129639,643.109314 562.483398,621.435242 
	C555.235840,605.150940 549.963562,587.989380 548.188232,570.015564 
	C547.170837,559.714172 545.484680,549.439880 545.156311,539.119751 
	C544.802490,527.999939 544.981628,516.765076 546.174255,505.714874 
	C548.522095,483.961700 553.227112,462.614380 562.859009,442.828125 
	C569.182312,429.838440 577.192383,417.881744 586.732727,406.758240 
	C598.261353,393.316620 611.841736,382.706848 627.226257,374.680786 
	C642.811462,366.550049 659.656128,361.777832 677.494019,360.936676 
	C700.442383,359.854523 722.206787,364.045319 742.648010,374.559387 
	C769.248108,388.241364 788.884216,408.874207 803.021118,435.087341 
	C814.444519,456.268829 820.288818,478.986908 823.060059,502.721344 
	C827.507080,540.807556 824.464172,578.102478 810.758484,614.064575 
	C800.430542,641.164001 783.084290,663.197571 759.738770,680.479675 
	C745.210632,691.234558 728.875244,698.054932 711.553528,702.681946 
	C707.766357,703.693604 703.786011,703.981750 699.467346,704.774780 
M682.775696,452.285492 
	C670.513672,453.175385 661.601440,459.580231 655.173950,469.600677 
	C647.496460,481.570038 643.189514,494.987183 642.392944,508.977539 
	C641.443237,525.660400 641.459900,542.482361 642.428528,559.164429 
	C643.236938,573.087830 647.395447,586.417236 654.840942,598.540771 
	C660.959595,608.503662 669.854065,615.024475 681.036133,616.674072 
	C692.089783,618.304749 702.226257,614.315002 710.150330,605.964417 
	C718.187073,597.494873 722.253052,586.976196 725.050110,575.926270 
	C729.224548,559.435059 729.547424,542.647156 729.124512,525.715881 
	C728.699219,508.688690 726.294006,492.247528 719.068787,476.688690 
	C712.048096,461.570099 701.000183,452.349945 682.775696,452.285492 
z"/>
<path fill="#822020" opacity="1.000000" stroke="none" 
	d="
M857.726074,632.999878 
	C857.726074,573.882385 857.726074,515.264954 857.726074,455.999634 
	C850.722778,455.999634 844.025208,455.999634 837.298584,455.999634 
	C840.311646,441.854034 843.115845,428.320953 846.091858,414.825745 
	C848.800110,402.544891 851.636475,390.291321 854.540527,378.055176 
	C855.506653,373.984497 855.669128,368.243164 858.340637,366.441742 
	C861.491577,364.317139 866.966492,365.471985 871.432434,365.492615 
	C896.585938,365.608734 921.745605,365.520721 946.890198,366.082855 
	C964.759888,366.482300 982.418640,368.371368 999.484619,374.696747 
	C1019.412170,382.082703 1035.009033,395.057190 1048.591309,410.756683 
	C1068.243896,433.472595 1078.843262,460.480316 1083.659058,489.719666 
	C1086.921387,509.527313 1087.645874,529.518616 1086.237915,549.714355 
	C1084.652100,572.460022 1080.433105,594.448242 1071.890625,615.495300 
	C1059.161255,646.858276 1039.125977,672.148621 1008.340210,687.513367 
	C996.760437,693.292725 984.217712,696.536682 971.185181,697.977173 
	C933.759399,702.114014 896.236267,699.403809 858.763367,700.016968 
	C858.630615,700.019165 858.495056,699.851074 857.726135,699.343750 
	C857.726135,677.679016 857.726135,655.589478 857.726074,632.999878 
M990.721069,553.118591 
	C991.049377,544.139404 991.845703,535.147339 991.600342,526.183838 
	C991.194824,511.368896 990.071655,496.571930 984.129639,482.673462 
	C977.390198,466.909454 965.086365,458.635681 948.269348,455.940033 
	C948.269348,507.406860 948.269348,558.474792 948.269348,609.902161 
	C961.349854,609.454285 970.865906,603.294067 977.883789,592.984558 
	C985.867554,581.256470 988.859924,567.822144 990.721069,553.118591 
z"/>
<path fill="#822121" opacity="1.000000" stroke="none" 
	d="
M43.347099,689.954651 
	C43.347187,611.820068 43.347187,534.177307 43.347187,455.963379 
	C36.480450,455.963379 29.893658,455.963379 23.047089,455.963379 
	C25.840759,442.812927 28.399906,430.241943 31.198496,417.724487 
	C34.760777,401.791229 38.653221,385.930573 42.083588,369.969940 
	C42.842701,366.437988 44.292427,365.443756 47.674679,365.466492 
	C83.836708,365.709869 120.009933,365.375702 156.157806,366.189606 
	C174.943863,366.612579 193.215576,370.603790 208.891220,382.130371 
	C224.180374,393.372833 235.106445,407.992310 243.157532,425.151031 
	C250.675888,441.174347 255.280701,457.987000 256.586121,475.401764 
	C257.620514,489.200867 256.805573,503.208313 255.912384,517.065308 
	C254.679138,536.197632 248.637436,554.101868 239.928253,571.111694 
	C230.465866,589.592651 217.269104,604.840271 198.385513,613.757019 
	C188.422073,618.461670 177.375702,621.345398 166.512756,623.536865 
	C156.112381,625.635010 145.316574,625.772949 134.143188,626.824280 
	C134.143188,650.621155 134.143188,675.018188 134.143188,699.789429 
	C103.758743,699.789429 73.868080,699.789429 43.347015,699.789429 
	C43.347015,696.681580 43.347015,693.564087 43.347099,689.954651 
M133.930710,512.500000 
	C133.930710,521.270447 133.930710,530.040955 133.930710,538.986267 
	C146.091141,539.586365 155.071564,535.070984 161.325241,525.271484 
	C170.096237,511.527191 170.681000,496.467041 167.897980,481.048828 
	C164.659821,463.109222 152.678940,453.151093 133.930695,452.688904 
	C133.930695,472.297607 133.930695,491.898804 133.930710,512.500000 
z"/>
<path fill="#842423" opacity="1.000000" stroke="none" 
	d="
M1564.101807,609.990601 
	C1570.150391,610.174805 1575.320435,609.076660 1579.540894,605.057251 
	C1584.266357,600.556580 1584.835327,593.751587 1579.821899,589.533508 
	C1574.203247,584.806091 1568.046387,580.538696 1561.618042,576.986389 
	C1541.445923,565.839417 1519.909790,557.253723 1500.891846,543.904785 
	C1479.255737,528.718140 1464.535156,508.929810 1460.309814,482.578796 
	C1458.445679,470.953674 1457.204102,458.847626 1458.297607,447.205780 
	C1460.866455,419.855438 1471.984131,396.010315 1492.975464,377.712555 
	C1507.524048,365.030792 1524.590088,357.353607 1543.950195,354.941803 
	C1560.749023,352.849091 1577.328003,353.970673 1593.747925,357.677795 
	C1597.354492,358.492065 1598.500366,357.162567 1599.145264,354.118439 
	C1599.844360,350.817780 1600.702515,347.550812 1601.605835,343.791840 
	C1630.143921,350.739929 1658.312134,357.597931 1687.198853,364.630920 
	C1678.381836,400.705383 1669.594604,436.657776 1660.678345,473.138306 
	C1656.088013,469.592560 1651.982788,466.241974 1647.696045,463.142242 
	C1631.652100,451.540924 1613.785522,444.782990 1593.937012,444.219055 
	C1588.589478,444.067078 1582.920898,445.043762 1577.872803,446.835663 
	C1569.624634,449.763367 1568.060547,457.466003 1575.075928,462.566864 
	C1584.978394,469.766693 1595.615112,476.049561 1606.334473,482.011536 
	C1623.468872,491.541534 1641.719971,499.221161 1656.864502,512.009644 
	C1677.226318,529.203918 1688.012085,551.440186 1691.085938,577.808472 
	C1693.482178,598.363831 1691.804199,618.434387 1684.773071,637.846008 
	C1675.750000,662.756531 1660.038330,682.417175 1636.976929,695.853943 
	C1623.052490,703.967102 1608.171997,709.773743 1592.033081,710.791504 
	C1579.245728,711.598022 1566.324463,711.550842 1553.532715,710.755127 
	C1525.708374,709.024292 1500.268066,699.139465 1475.836914,686.347046 
	C1471.702881,684.182434 1467.596436,681.885498 1463.807007,679.186584 
	C1462.487427,678.246704 1461.186157,675.673767 1461.529419,674.243286 
	C1468.926025,643.419373 1476.550659,612.650085 1484.168213,581.879395 
	C1484.471069,580.655701 1485.139404,579.522522 1485.839600,577.870056 
	C1509.034668,595.348145 1534.431030,607.382874 1564.101807,609.990601 
M1558.787964,622.849792 
	C1535.520142,620.461548 1514.375488,611.996399 1494.185669,599.865356 
	C1488.440063,623.019653 1482.748169,645.757324 1477.297119,668.552673 
	C1477.041382,669.621887 1478.617676,671.773376 1479.869141,672.464783 
	C1515.404541,692.097656 1553.054932,702.740295 1593.897949,696.880249 
	C1623.609741,692.617310 1647.242065,677.856812 1663.145020,651.994202 
	C1677.232544,629.083740 1681.302124,603.895996 1677.691772,577.577393 
	C1674.016479,550.784851 1661.267578,529.200684 1637.849365,514.896973 
	C1626.653931,508.058807 1614.723755,502.434174 1603.402222,495.789764 
	C1590.672729,488.319122 1577.998657,480.694031 1565.805298,472.394470 
	C1559.412720,468.043274 1556.948120,460.917664 1557.713623,453.031586 
	C1558.743652,442.419434 1566.511230,434.655334 1579.297485,432.040619 
	C1596.853027,428.450623 1613.736450,431.769073 1630.041504,438.252869 
	C1637.683838,441.291870 1644.910889,445.375366 1652.619019,449.128082 
	C1658.720337,424.254547 1664.792480,399.500793 1670.930054,374.479462 
	C1650.976685,369.612274 1631.657104,364.899689 1611.936890,360.089386 
	C1610.658203,364.950195 1609.488159,369.398010 1608.191528,374.326996 
	C1606.406860,373.975128 1604.839844,373.615753 1603.255981,373.361755 
	C1590.628174,371.336823 1578.060303,368.301727 1565.354736,367.523987 
	C1533.888062,365.597809 1507.985840,377.152069 1489.090576,402.706421 
	C1473.756348,423.444427 1469.692993,447.239075 1472.395264,472.356049 
	C1474.193970,489.074341 1479.695679,504.481659 1491.459961,517.005371 
	C1501.460693,527.651855 1513.103638,536.262939 1526.007935,543.039795 
	C1538.371338,549.532532 1551.175049,555.209839 1563.371094,561.990540 
	C1572.329834,566.971436 1581.533203,572.159058 1589.012329,579.016235 
	C1603.244507,592.064697 1598.504517,614.208984 1580.325073,620.628357 
	C1573.985962,622.866882 1566.625488,622.212646 1558.787964,622.849792 
z"/>
<path fill="#832221" opacity="1.000000" stroke="none" 
	d="
M1888.881226,439.845825 
	C1887.052124,447.564606 1885.290283,454.868683 1883.455322,462.476013 
	C1869.390381,462.476013 1855.421875,462.476013 1840.803467,462.476013 
	C1840.803467,544.015015 1840.803467,625.211731 1840.803467,706.704895 
	C1805.911621,706.704895 1771.671265,706.704895 1736.755371,706.704895 
	C1736.755371,625.552307 1736.755371,544.365234 1736.755371,462.610046 
	C1719.866211,462.610046 1703.637695,462.610046 1687.295410,462.610046 
	C1695.138794,427.874329 1702.853394,393.709106 1710.729126,358.830139 
	C1712.424561,358.830139 1714.179688,358.830170 1715.934692,358.830139 
	C1747.096191,358.830109 1778.257935,358.782257 1809.419067,358.892212 
	C1813.199219,358.905548 1815.178101,358.298523 1815.295532,353.827362 
	C1815.418701,349.140442 1817.701660,346.875153 1823.398926,346.966949 
	C1850.054199,347.396393 1876.720459,347.157593 1903.382690,347.157593 
	C1905.160522,347.157593 1906.938232,347.157623 1909.274170,347.157623 
	C1902.403320,378.349579 1895.675903,408.890350 1888.881226,439.845825 
M1725.846924,372.169281 
	C1723.114624,371.926178 1721.483643,372.337463 1720.758789,375.801117 
	C1716.708984,395.153809 1712.275391,414.426239 1707.973267,433.726135 
	C1706.873047,438.662781 1705.774414,443.599854 1704.556519,449.069519 
	C1720.076050,449.069519 1734.840088,449.069519 1750.097168,449.069519 
	C1750.097168,530.674622 1750.097168,611.879089 1750.097168,693.112366 
	C1775.964233,693.112366 1801.328857,693.112366 1827.067993,693.112366 
	C1827.067993,611.622864 1827.067993,530.545532 1827.067993,449.047363 
	C1842.533813,449.047363 1857.629028,449.047363 1872.884521,449.047363 
	C1879.472412,419.588928 1885.978027,390.497925 1892.610107,360.841644 
	C1890.027588,360.841644 1888.221191,360.841644 1886.414795,360.841644 
	C1869.919189,360.841644 1853.423706,360.841644 1836.928101,360.841644 
	C1828.182983,360.841644 1828.190796,360.843964 1825.619873,369.480225 
	C1825.351318,370.382294 1824.922241,371.236542 1824.544800,372.169220 
	C1791.740601,372.169220 1759.258057,372.169220 1725.846924,372.169281 
z"/>
<path fill="#852423" opacity="1.000000" stroke="none" 
	d="
M1206.000000,707.009827 
	C1187.222778,707.009827 1168.945435,707.009827 1150.334229,707.009827 
	C1150.334229,625.597961 1150.334229,544.687134 1150.334229,463.009857 
	C1144.273315,463.009857 1138.520508,462.982117 1132.768311,463.020874 
	C1129.606934,463.042175 1127.872070,463.297668 1129.007935,458.493164 
	C1135.740234,430.018066 1141.867310,401.399750 1148.175415,372.824677 
	C1148.628296,370.773590 1148.846680,368.671661 1149.269287,366.612885 
	C1150.868896,358.819275 1150.883545,358.822205 1159.236084,358.822205 
	C1188.888794,358.822174 1218.541626,358.822205 1248.194336,358.822205 
	C1249.989136,358.822205 1251.783936,358.822174 1254.017456,358.822174 
	C1254.017456,440.288086 1254.017456,521.334045 1254.017456,602.956421 
	C1277.500977,602.956421 1300.553589,602.956421 1324.060303,602.956421 
	C1316.461670,637.929993 1309.003418,672.256958 1301.452759,707.009827 
	C1269.734375,707.009827 1238.117188,707.009827 1206.000000,707.009827 
M1215.500000,372.175598 
	C1197.881470,372.175598 1180.262939,372.175598 1162.465942,372.175598 
	C1156.727783,397.953888 1151.101685,423.228485 1145.322388,449.191040 
	C1151.845825,449.191040 1157.743164,449.191040 1164.029297,449.191040 
	C1164.029297,530.846008 1164.029297,611.919800 1164.029297,693.177185 
	C1165.388916,693.287842 1166.354736,693.434875 1167.320557,693.435181 
	C1207.140869,693.447693 1246.961304,693.405518 1286.781250,693.525940 
	C1290.016479,693.535706 1291.018677,692.285889 1291.614014,689.424927 
	C1294.290405,676.562866 1297.154541,663.739990 1299.934082,650.899231 
	C1302.351318,639.731079 1304.745850,628.558105 1307.302124,616.682251 
	C1284.838501,616.682251 1262.956299,616.682251 1240.521240,616.682251 
	C1240.521240,534.861633 1240.521240,453.655121 1240.521240,372.175629 
	C1232.137695,372.175629 1224.318848,372.175629 1215.500000,372.175598 
z"/>
<path fill="#862625" opacity="1.000000" stroke="none" 
	d="
M1437.971313,660.000000 
	C1437.971313,675.800232 1437.971313,691.100403 1437.971313,706.706421 
	C1403.259277,706.706421 1368.883789,706.706421 1334.186646,706.706421 
	C1334.186646,625.609253 1334.186646,544.683411 1334.186646,463.014587 
	C1328.305542,463.014587 1322.714722,462.980042 1317.124634,463.027740 
	C1313.858887,463.055603 1311.732910,463.438599 1312.954468,458.306580 
	C1319.348999,431.442200 1325.156982,404.437927 1331.129517,377.473572 
	C1332.245239,372.437195 1332.967041,367.301758 1334.337891,362.341217 
	C1334.727051,360.933075 1336.763184,358.972412 1338.050659,358.967346 
	C1371.037598,358.837189 1404.025269,358.932922 1437.012939,359.000031 
	C1437.146484,359.000305 1437.279907,359.154968 1437.971313,359.582642 
	C1437.971313,459.324310 1437.971313,559.412170 1437.971313,660.000000 
M1335.971558,418.626648 
	C1333.762207,428.611938 1331.552734,438.597229 1329.216187,449.157379 
	C1335.756470,449.157379 1341.516846,449.157379 1347.887939,449.157379 
	C1347.887939,530.784058 1347.887939,611.972839 1347.887939,693.138794 
	C1373.604858,693.138794 1398.693481,693.138794 1424.054810,693.138794 
	C1424.054810,586.138672 1424.054810,479.437103 1424.054810,372.459320 
	C1398.037109,372.459320 1372.292969,372.459320 1346.314453,372.459320 
	C1344.580078,380.036591 1342.859497,387.466461 1341.182251,394.906097 
	C1339.463379,402.530975 1337.786987,410.165405 1335.971558,418.626648 
z"/>
<path fill="#FDEBC2" opacity="1.000000" stroke="none" 
	d="
M289.094971,456.273590 
	C289.286652,456.219208 289.565125,456.342194 289.802673,456.721191 
	C289.523071,456.851746 289.329742,456.676331 289.094971,456.273590 
z"/>
<path fill="#FDEBC2" opacity="1.000000" stroke="none" 
	d="
M395.429871,453.195953 
	C404.669403,455.146271 412.702576,458.282990 418.210968,466.031708 
	C423.056091,472.847443 424.421326,480.647522 424.793488,488.662109 
	C425.313629,499.862946 423.546204,510.502014 416.173798,519.598999 
	C408.633698,528.903015 391.012146,534.458313 380.482758,530.614685 
	C380.482758,504.916504 380.482758,479.186127 380.482758,453.137299 
	C385.468292,453.137299 390.228973,453.137299 395.429871,453.195953 
z"/>
<path fill="#FEEDC3" opacity="1.000000" stroke="none" 
	d="
M683.210388,452.258789 
	C701.000183,452.349945 712.048096,461.570099 719.068787,476.688690 
	C726.294006,492.247528 728.699219,508.688690 729.124512,525.715881 
	C729.547424,542.647156 729.224548,559.435059 725.050110,575.926270 
	C722.253052,586.976196 718.187073,597.494873 710.150330,605.964417 
	C702.226257,614.315002 692.089783,618.304749 681.036133,616.674072 
	C669.854065,615.024475 660.959595,608.503662 654.840942,598.540771 
	C647.395447,586.417236 643.236938,573.087830 642.428528,559.164429 
	C641.459900,542.482361 641.443237,525.660400 642.392944,508.977539 
	C643.189514,494.987183 647.496460,481.570038 655.173950,469.600677 
	C661.601440,459.580231 670.513672,453.175385 683.210388,452.258789 
z"/>
<path fill="#FEECC3" opacity="1.000000" stroke="none" 
	d="
M990.649170,553.564758 
	C988.859924,567.822144 985.867554,581.256470 977.883789,592.984558 
	C970.865906,603.294067 961.349854,609.454285 948.269348,609.902161 
	C948.269348,558.474792 948.269348,507.406860 948.269348,455.940033 
	C965.086365,458.635681 977.390198,466.909454 984.129639,482.673462 
	C990.071655,496.571930 991.194824,511.368896 991.600342,526.183838 
	C991.845703,535.147339 991.049377,544.139404 990.649170,553.564758 
z"/>
<path fill="#FEEDC3" opacity="1.000000" stroke="none" 
	d="
M133.930695,512.000000 
	C133.930695,491.898804 133.930695,472.297607 133.930695,452.688904 
	C152.678940,453.151093 164.659821,463.109222 167.897980,481.048828 
	C170.681000,496.467041 170.096237,511.527191 161.325241,525.271484 
	C155.071564,535.070984 146.091141,539.586365 133.930710,538.986267 
	C133.930710,530.040955 133.930710,521.270447 133.930695,512.000000 
z"/>
<path fill="#FFEDC3" opacity="1.000000" stroke="none" 
	d="
M1559.259766,622.864624 
	C1566.625488,622.212646 1573.985962,622.866882 1580.325073,620.628357 
	C1598.504517,614.208984 1603.244507,592.064697 1589.012329,579.016235 
	C1581.533203,572.159058 1572.329834,566.971436 1563.371094,561.990540 
	C1551.175049,555.209839 1538.371338,549.532532 1526.007935,543.039795 
	C1513.103638,536.262939 1501.460693,527.651855 1491.459961,517.005371 
	C1479.695679,504.481659 1474.193970,489.074341 1472.395264,472.356049 
	C1469.692993,447.239075 1473.756348,423.444427 1489.090576,402.706421 
	C1507.985840,377.152069 1533.888062,365.597809 1565.354736,367.523987 
	C1578.060303,368.301727 1590.628174,371.336823 1603.255981,373.361755 
	C1604.839844,373.615753 1606.406860,373.975128 1608.191528,374.326996 
	C1609.488159,369.398010 1610.658203,364.950195 1611.936890,360.089386 
	C1631.657104,364.899689 1650.976685,369.612274 1670.930054,374.479462 
	C1664.792480,399.500793 1658.720337,424.254547 1652.619019,449.128082 
	C1644.910889,445.375366 1637.683838,441.291870 1630.041504,438.252869 
	C1613.736450,431.769073 1596.853027,428.450623 1579.297485,432.040619 
	C1566.511230,434.655334 1558.743652,442.419434 1557.713623,453.031586 
	C1556.948120,460.917664 1559.412720,468.043274 1565.805298,472.394470 
	C1577.998657,480.694031 1590.672729,488.319122 1603.402222,495.789764 
	C1614.723755,502.434174 1626.653931,508.058807 1637.849365,514.896973 
	C1661.267578,529.200684 1674.016479,550.784851 1677.691772,577.577393 
	C1681.302124,603.895996 1677.232544,629.083740 1663.145020,651.994202 
	C1647.242065,677.856812 1623.609741,692.617310 1593.897949,696.880249 
	C1553.054932,702.740295 1515.404541,692.097656 1479.869141,672.464783 
	C1478.617676,671.773376 1477.041382,669.621887 1477.297119,668.552673 
	C1482.748169,645.757324 1488.440063,623.019653 1494.185669,599.865356 
	C1514.375488,611.996399 1535.520142,620.461548 1559.259766,622.864624 
z"/>
<path fill="#FFEEC4" opacity="1.000000" stroke="none" 
	d="
M1726.311279,372.169250 
	C1759.258057,372.169220 1791.740601,372.169220 1824.544800,372.169220 
	C1824.922241,371.236542 1825.351318,370.382294 1825.619873,369.480225 
	C1828.190796,360.843964 1828.182983,360.841644 1836.928101,360.841644 
	C1853.423706,360.841644 1869.919189,360.841644 1886.414795,360.841644 
	C1888.221191,360.841644 1890.027588,360.841644 1892.610107,360.841644 
	C1885.978027,390.497925 1879.472412,419.588928 1872.884521,449.047363 
	C1857.629028,449.047363 1842.533813,449.047363 1827.067993,449.047363 
	C1827.067993,530.545532 1827.067993,611.622864 1827.067993,693.112366 
	C1801.328857,693.112366 1775.964233,693.112366 1750.097168,693.112366 
	C1750.097168,611.879089 1750.097168,530.674622 1750.097168,449.069519 
	C1734.840088,449.069519 1720.076050,449.069519 1704.556519,449.069519 
	C1705.774414,443.599854 1706.873047,438.662781 1707.973267,433.726135 
	C1712.275391,414.426239 1716.708984,395.153809 1720.758789,375.801117 
	C1721.483643,372.337463 1723.114624,371.926178 1726.311279,372.169250 
z"/>
<path fill="#FFEDC3" opacity="1.000000" stroke="none" 
	d="
M1216.000000,372.175598 
	C1224.318848,372.175629 1232.137695,372.175629 1240.521240,372.175629 
	C1240.521240,453.655121 1240.521240,534.861633 1240.521240,616.682251 
	C1262.956299,616.682251 1284.838501,616.682251 1307.302124,616.682251 
	C1304.745850,628.558105 1302.351318,639.731079 1299.934082,650.899231 
	C1297.154541,663.739990 1294.290405,676.562866 1291.614014,689.424927 
	C1291.018677,692.285889 1290.016479,693.535706 1286.781250,693.525940 
	C1246.961304,693.405518 1207.140869,693.447693 1167.320557,693.435181 
	C1166.354736,693.434875 1165.388916,693.287842 1164.029297,693.177185 
	C1164.029297,611.919800 1164.029297,530.846008 1164.029297,449.191040 
	C1157.743164,449.191040 1151.845825,449.191040 1145.322388,449.191040 
	C1151.101685,423.228485 1156.727783,397.953888 1162.465942,372.175598 
	C1180.262939,372.175598 1197.881470,372.175598 1216.000000,372.175598 
z"/>
<path fill="#FFEEC4" opacity="1.000000" stroke="none" 
	d="
M1336.031738,418.211121 
	C1337.786987,410.165405 1339.463379,402.530975 1341.182251,394.906097 
	C1342.859497,387.466461 1344.580078,380.036591 1346.314453,372.459320 
	C1372.292969,372.459320 1398.037109,372.459320 1424.054810,372.459320 
	C1424.054810,479.437103 1424.054810,586.138672 1424.054810,693.138794 
	C1398.693481,693.138794 1373.604858,693.138794 1347.887939,693.138794 
	C1347.887939,611.972839 1347.887939,530.784058 1347.887939,449.157379 
	C1341.516846,449.157379 1335.756470,449.157379 1329.216187,449.157379 
	C1331.552734,438.597229 1333.762207,428.611938 1336.031738,418.211121 
z"/>
</svg>